# xmcd
#
# Track frame offsets:
# 150
# 18051
# 28899
# 44578
# 64017
# 81536
# 97454
# 112957
# 127837
# 150700
#
# Disc length: 2122 seconds
#
#
# Revision: 1
# Processed by: cddbd v1.5.2PL0 Copyright (c) Steve Scherf et al.
# Submitted via: HACP 1.20
#
DISCID=8208480a
DTITLE=B. B. King - The Best of B.B. King
DYEAR=2003
DGENRE=Blues
TTITLE0=Paying the Cost to be the Boss
TTITLE1=Recession Blues
TTITLE2=All Over Again
TTITLE3=Sweet Sixteen
TTITLE4=That Evil Child
TTITLE5=Lonely Nights
TTITLE6=Walkin' and Cryin'
TTITLE7=B.B.'s Boogie
TTITLE8=Everyday I Have the Blues
TTITLE9=A New Way of Driving
EXTD=
EXTT0=
EXTT1=
EXTT2=
EXTT3=
EXTT4=
EXTT5=
EXTT6=
EXTT7=
EXTT8=
EXTT9=
PLAYORDER=
